<svg xmlns="http://www.w3.org/2000/svg" xmlns:xlink="http://www.w3.org/1999/xlink" width="1040" height="494.2"><rect width="1040" height="494.2" rx="5" ry="5" class="a"/><svg y="0%" x="0%"><circle cx="20" cy="20" r="6" fill="#ff5f58"/><circle cx="40" cy="20" r="6" fill="#ffbd2e"/><circle cx="60" cy="20" r="6" fill="#18c132"/></svg><svg height="434.2" viewBox="0 0 100 43.42" width="1000" x="15" xmlns="http://www.w3.org/2000/svg" xmlns:xlink="http://www.w3.org/1999/xlink" y="50"><style>@keyframes m{0%{transform:translateX(-100px)}3%{transform:translateX(-200px)}5.4%{transform:translateX(-300px)}18.1%{transform:translateX(-400px)}19.3%{transform:translateX(-600px)}19.4%{transform:translateX(-1100px)}19.9%{transform:translateX(-1300px)}35.2%{transform:translateX(-1400px)}38.9%{transform:translateX(-1500px)}40.9%{transform:translateX(-1600px)}44.8%{transform:translateX(-1700px)}57.1%{transform:translateX(-2100px)}57.3%{transform:translateX(-2400px)}68.7%{transform:translateX(-2600px)}71.6%{transform:translateX(-2700px)}72.9%{transform:translateX(-2800px)}74%{transform:translateX(-2900px)}74.7%{transform:translateX(-3000px)}76.7%{transform:translateX(-3200px)}77.9%{transform:translateX(-3300px)}78.8%{transform:translateX(-3400px)}84.4%{transform:translateX(-3600px)}84.5%{transform:translateX(-3900px)}84.7%{transform:translateX(-4100px)}84.8%{transform:translateX(-4200px)}90.8%{transform:translateX(-4400px)}99.8%{transform:translateX(-4900px)}to{transform:translateX(-5200px)}}.a{fill:#282d35}.f{fill:#66c2cd;white-space:pre}.f,.g{font-weight:700}.g,.h,.i{fill:#a8cc8c;white-space:pre}.i{fill:#b9c0cb}.j{fill:#6f7783}.j,.o,.p{white-space:pre}.o{fill:#b9c0cb;text-decoration:underline}.p{fill:#e88388;font-weight:700}</style><g font-family="Monaco,Consolas,Menlo,'Bitstream Vera Sans Mono','Powerline Symbols',monospace" font-size="1.67"><defs><symbol id="1"><text y="1.67" class="f">$</text><text x="3.006" y="1.67" class="g">tshsh</text><text x="10.02" y="1.67" class="h">tshsh</text></symbol><symbol id="2"><text y="1.67" class="i">&quot;python&quot;</text><text x="9.018" y="1.67" class="i">started:</text><text x="18.036" y="1.67" class="i">8372</text></symbol><symbol id="3"><text y="1.67" class="i">&quot;zsh&quot;</text><text x="6.012" y="1.67" class="i">started:</text><text x="15.03" y="1.67" class="i">8373</text></symbol><symbol id="4"><text y="1.67" class="i">Python</text><text x="7.014" y="1.67" class="i">2.7.17</text><text x="14.028" y="1.67" class="i">(default,</text><text x="24.048" y="1.67" class="i">Feb</text><text x="28.056" y="1.67" class="i">27</text><text x="31.062" y="1.67" class="i">2021,</text><text x="37.074" y="1.67" class="i">15:10:58)</text></symbol><symbol id="5"><text y="1.67" class="i">[GCC</text><text x="5.01" y="1.67" class="i">7.5.0]</text><text x="12.024" y="1.67" class="i">on</text><text x="15.03" y="1.67" class="i">linux2</text></symbol><symbol id="6"><text y="1.67" class="i">Type</text><text x="5.01" y="1.67" class="i">&quot;help&quot;,</text><text x="13.026" y="1.67" class="i">&quot;copyright&quot;,</text><text x="26.052" y="1.67" class="i">&quot;credits&quot;</text><text x="36.072" y="1.67" class="i">or</text><text x="39.078" y="1.67" class="i">&quot;license&quot;</text><text x="49.098" y="1.67" class="i">for</text><text x="53.106" y="1.67" class="i">more</text><text x="58.116" y="1.67" class="i">information.</text></symbol><symbol id="7"><text y="1.67" class="i">&gt;&gt;&gt;</text></symbol><symbol id="8"><text y="1.67" class="i">&gt;&gt;&gt;</text><text x="4.008" y="1.67" class="i">1+2</text></symbol><symbol id="9"><text y="1.67" class="i">3</text></symbol><symbol id="10"><text y="1.67" class="f">$</text><text x="3.006" y="1.67" class="g">tshsh</text></symbol><symbol id="11"><text y="1.67" class="f">$</text><text x="3.006" y="1.67" class="g">tshsh</text><text x="10.02" y="1.67" class="h">echo</text><text x="15.03" y="1.67" class="j">&quot;hit</text><text x="20.04" y="1.67" class="j">^z&quot;</text></symbol><symbol id="12"><text y="1.67" class="f">$</text><text x="3.006" y="1.67" class="g">tshsh</text><text x="10.02" y="1.67" class="h">echo</text><text x="15.03" y="1.67" class="i">123</text></symbol><symbol id="13"><text y="1.67" class="i">123</text></symbol><symbol id="14"><text y="1.67" class="i">KeyboardInterrupt</text></symbol><symbol id="a"><path fill="transparent" d="M0 0h100v21H0z"/></symbol><symbol id="b"><path fill="#6f7683" d="M0 0h1.102v2.171H0z"/></symbol></defs><path class="a" d="M0 0h100v43.42H0z"/><g style="animation-duration:6.562898999999999s;animation-iteration-count:infinite;animation-name:m;animation-timing-function:steps(1,end)"><svg width="5300"><svg><use xlink:href="#a"/><use xlink:href="#b" x="10.996"/><text y="1.67" class="f">$</text><text x="3.006" y="1.67" class="g">tshsh</text><text x="10.02" y="1.67" class="o">t</text></svg><svg x="100"><use xlink:href="#a"/><use xlink:href="#b" x="10.996"/><text y="1.67" class="f">$</text><text x="3.006" y="1.67" class="g">tshsh</text><text x="10.02" y="1.67" class="o">t</text><text x="11.022" y="1.67" class="j">shsh</text></svg><svg x="200"><use xlink:href="#a"/><use xlink:href="#b" x="11.996"/><text y="1.67" class="f">$</text><text x="3.006" y="1.67" class="g">tshsh</text><text x="10.02" y="1.67" class="o">ts</text><text x="12.024" y="1.67" class="j">hsh</text></svg><svg x="300"><use xlink:href="#a"/><use xlink:href="#b" x="12.996"/><text y="1.67" class="f">$</text><text x="3.006" y="1.67" class="g">tshsh</text><text x="10.02" y="1.67" class="o">tsh</text><text x="13.026" y="1.67" class="j">sh</text></svg><svg x="400"><use xlink:href="#a"/><use xlink:href="#b" x="14.996"/><use xlink:href="#1"/></svg><svg x="500"><use xlink:href="#a"/><use xlink:href="#b" x="14.996"/><use xlink:href="#1"/></svg><svg x="600"><use xlink:href="#a"/><use xlink:href="#b" x="14.996"/><use xlink:href="#1"/></svg><svg x="700"><use xlink:href="#a"/><use xlink:href="#b" x="-.004" y="2.146"/><use xlink:href="#1"/></svg><svg x="800"><use xlink:href="#a"/><use xlink:href="#b" x="-.004" y="2.146"/><use xlink:href="#1"/></svg><svg x="900"><use xlink:href="#a"/><use xlink:href="#b" x="-.004" y="4.317"/><use xlink:href="#1"/><use xlink:href="#2" y="2.171"/></svg><svg x="1000"><use xlink:href="#a"/><use xlink:href="#b" x="-.004" y="6.488"/><use xlink:href="#1"/><use xlink:href="#2" y="2.171"/><use xlink:href="#3" y="4.342"/></svg><svg x="1100"><use xlink:href="#a"/><use xlink:href="#b" x="-.004" y="8.659"/><use xlink:href="#1"/><use xlink:href="#2" y="2.171"/><use xlink:href="#3" y="4.342"/></svg><svg x="1200"><use xlink:href="#a"/><use xlink:href="#b" x="-.004" y="15.172"/><use xlink:href="#1"/><use xlink:href="#2" y="2.171"/><use xlink:href="#3" y="4.342"/><use xlink:href="#4" y="8.684"/><use xlink:href="#5" y="10.855"/><use xlink:href="#6" y="13.026"/></svg><svg x="1300"><use xlink:href="#a"/><use xlink:href="#b" x="3.996" y="15.172"/><use xlink:href="#1"/><use xlink:href="#2" y="2.171"/><use xlink:href="#3" y="4.342"/><use xlink:href="#4" y="8.684"/><use xlink:href="#5" y="10.855"/><use xlink:href="#6" y="13.026"/><use xlink:href="#7" y="15.197"/></svg><svg x="1400"><use xlink:href="#a"/><use xlink:href="#b" x="4.996" y="15.172"/><use xlink:href="#1"/><use xlink:href="#2" y="2.171"/><use xlink:href="#3" y="4.342"/><use xlink:href="#4" y="8.684"/><use xlink:href="#5" y="10.855"/><use xlink:href="#6" y="13.026"/><text y="16.867" class="i">&gt;&gt;&gt;</text><text x="4.008" y="16.867" class="i">1</text></svg><svg x="1500"><use xlink:href="#a"/><use xlink:href="#b" x="5.996" y="15.172"/><use xlink:href="#1"/><use xlink:href="#2" y="2.171"/><use xlink:href="#3" y="4.342"/><use xlink:href="#4" y="8.684"/><use xlink:href="#5" y="10.855"/><use xlink:href="#6" y="13.026"/><text y="16.867" class="i">&gt;&gt;&gt;</text><text x="4.008" y="16.867" class="i">1+</text></svg><svg x="1600"><use xlink:href="#a"/><use xlink:href="#b" x="6.996" y="15.172"/><use xlink:href="#1"/><use xlink:href="#2" y="2.171"/><use xlink:href="#3" y="4.342"/><use xlink:href="#4" y="8.684"/><use xlink:href="#5" y="10.855"/><use xlink:href="#6" y="13.026"/><use xlink:href="#8" y="15.197"/></svg><svg x="1700"><use xlink:href="#a"/><use xlink:href="#b" x="3.996" y="19.514"/><use xlink:href="#1"/><use xlink:href="#2" y="2.171"/><use xlink:href="#3" y="4.342"/><use xlink:href="#4" y="8.684"/><use xlink:href="#5" y="10.855"/><use xlink:href="#6" y="13.026"/><use xlink:href="#8" y="15.197"/><use xlink:href="#9" y="17.368"/><use xlink:href="#7" y="19.539"/></svg><svg x="1800"><use xlink:href="#a"/><use xlink:href="#b" x="3.996" y="19.514"/><use xlink:href="#1"/><use xlink:href="#2" y="2.171"/><use xlink:href="#3" y="4.342"/><use xlink:href="#4" y="8.684"/><use xlink:href="#5" y="10.855"/><use xlink:href="#6" y="13.026"/><use xlink:href="#8" y="15.197"/><use xlink:href="#9" y="17.368"/><use xlink:href="#7" y="19.539"/></svg><svg x="1900"><use xlink:href="#a"/><use xlink:href="#b" x="-.004" y="21.685"/><use xlink:href="#1"/><use xlink:href="#2" y="2.171"/><use xlink:href="#3" y="4.342"/><use xlink:href="#4" y="8.684"/><use xlink:href="#5" y="10.855"/><use xlink:href="#6" y="13.026"/><use xlink:href="#8" y="15.197"/><use xlink:href="#9" y="17.368"/><use xlink:href="#7" y="19.539"/></svg><svg x="2000"><use xlink:href="#a"/><use xlink:href="#b" x="-.004" y="21.685"/><use xlink:href="#1"/><use xlink:href="#2" y="2.171"/><use xlink:href="#3" y="4.342"/><use xlink:href="#4" y="8.684"/><use xlink:href="#5" y="10.855"/><use xlink:href="#6" y="13.026"/><use xlink:href="#8" y="15.197"/><use xlink:href="#9" y="17.368"/><use xlink:href="#7" y="19.539"/></svg><svg x="2100"><use xlink:href="#a"/><use xlink:href="#b" x="-.004" y="21.685"/><use xlink:href="#1"/><use xlink:href="#2" y="2.171"/><use xlink:href="#3" y="4.342"/><use xlink:href="#4" y="8.684"/><use xlink:href="#5" y="10.855"/><use xlink:href="#6" y="13.026"/><use xlink:href="#8" y="15.197"/><use xlink:href="#9" y="17.368"/><use xlink:href="#7" y="19.539"/></svg><svg x="2200"><use xlink:href="#a"/><use xlink:href="#b" x="9.996" y="21.685"/><use xlink:href="#1"/><use xlink:href="#2" y="2.171"/><use xlink:href="#3" y="4.342"/><use xlink:href="#4" y="8.684"/><use xlink:href="#5" y="10.855"/><use xlink:href="#6" y="13.026"/><use xlink:href="#8" y="15.197"/><use xlink:href="#9" y="17.368"/><use xlink:href="#7" y="19.539"/><use xlink:href="#10" y="21.71"/></svg><svg x="2300"><use xlink:href="#a"/><use xlink:href="#b" x="9.996" y="21.685"/><use xlink:href="#1"/><use xlink:href="#2" y="2.171"/><use xlink:href="#3" y="4.342"/><use xlink:href="#4" y="8.684"/><use xlink:href="#5" y="10.855"/><use xlink:href="#6" y="13.026"/><use xlink:href="#8" y="15.197"/><use xlink:href="#9" y="17.368"/><use xlink:href="#7" y="19.539"/><use xlink:href="#10" y="21.71"/></svg><svg x="2400"><use xlink:href="#a"/><use xlink:href="#b" x="9.996" y="21.685"/><use xlink:href="#1"/><use xlink:href="#2" y="2.171"/><use xlink:href="#3" y="4.342"/><use xlink:href="#4" y="8.684"/><use xlink:href="#5" y="10.855"/><use xlink:href="#6" y="13.026"/><use xlink:href="#8" y="15.197"/><use xlink:href="#9" y="17.368"/><use xlink:href="#7" y="19.539"/><use xlink:href="#10" y="21.71"/></svg><svg x="2500"><use xlink:href="#a"/><use xlink:href="#b" x="10.996" y="21.685"/><use xlink:href="#1"/><use xlink:href="#2" y="2.171"/><use xlink:href="#3" y="4.342"/><use xlink:href="#4" y="8.684"/><use xlink:href="#5" y="10.855"/><use xlink:href="#6" y="13.026"/><use xlink:href="#8" y="15.197"/><use xlink:href="#9" y="17.368"/><use xlink:href="#7" y="19.539"/><text y="23.38" class="f">$</text><text x="3.006" y="23.38" class="g">tshsh</text><text x="10.02" y="23.38" class="p">e</text></svg><svg x="2600"><use xlink:href="#a"/><use xlink:href="#b" x="10.996" y="21.685"/><use xlink:href="#1"/><use xlink:href="#2" y="2.171"/><use xlink:href="#3" y="4.342"/><use xlink:href="#4" y="8.684"/><use xlink:href="#5" y="10.855"/><use xlink:href="#6" y="13.026"/><use xlink:href="#8" y="15.197"/><use xlink:href="#9" y="17.368"/><use xlink:href="#7" y="19.539"/><text y="23.38" class="f">$</text><text x="3.006" y="23.38" class="g">tshsh</text><text x="10.02" y="23.38" class="p">e</text><text x="11.022" y="23.38" class="j">cho</text><text x="15.03" y="23.38" class="j">&quot;hit</text><text x="20.04" y="23.38" class="j">^z&quot;</text></svg><svg x="2700"><use xlink:href="#a"/><use xlink:href="#b" x="11.996" y="21.685"/><use xlink:href="#1"/><use xlink:href="#2" y="2.171"/><use xlink:href="#3" y="4.342"/><use xlink:href="#4" y="8.684"/><use xlink:href="#5" y="10.855"/><use xlink:href="#6" y="13.026"/><use xlink:href="#8" y="15.197"/><use xlink:href="#9" y="17.368"/><use xlink:href="#7" y="19.539"/><text y="23.38" class="f">$</text><text x="3.006" y="23.38" class="g">tshsh</text><text x="10.02" y="23.38" class="p">ec</text><text x="12.024" y="23.38" class="j">ho</text><text x="15.03" y="23.38" class="j">&quot;hit</text><text x="20.04" y="23.38" class="j">^z&quot;</text></svg><svg x="2800"><use xlink:href="#a"/><use xlink:href="#b" x="12.996" y="21.685"/><use xlink:href="#1"/><use xlink:href="#2" y="2.171"/><use xlink:href="#3" y="4.342"/><use xlink:href="#4" y="8.684"/><use xlink:href="#5" y="10.855"/><use xlink:href="#6" y="13.026"/><use xlink:href="#8" y="15.197"/><use xlink:href="#9" y="17.368"/><use xlink:href="#7" y="19.539"/><text y="23.38" class="f">$</text><text x="3.006" y="23.38" class="g">tshsh</text><text x="10.02" y="23.38" class="p">ech</text><text x="13.026" y="23.38" class="j">o</text><text x="15.03" y="23.38" class="j">&quot;hit</text><text x="20.04" y="23.38" class="j">^z&quot;</text></svg><svg x="2900"><use xlink:href="#a"/><use xlink:href="#b" x="13.996" y="21.685"/><use xlink:href="#1"/><use xlink:href="#2" y="2.171"/><use xlink:href="#3" y="4.342"/><use xlink:href="#4" y="8.684"/><use xlink:href="#5" y="10.855"/><use xlink:href="#6" y="13.026"/><use xlink:href="#8" y="15.197"/><use xlink:href="#9" y="17.368"/><use xlink:href="#7" y="19.539"/><use xlink:href="#11" y="21.71"/></svg><svg x="3000"><use xlink:href="#a"/><use xlink:href="#b" x="14.996" y="21.685"/><use xlink:href="#1"/><use xlink:href="#2" y="2.171"/><use xlink:href="#3" y="4.342"/><use xlink:href="#4" y="8.684"/><use xlink:href="#5" y="10.855"/><use xlink:href="#6" y="13.026"/><use xlink:href="#8" y="15.197"/><use xlink:href="#9" y="17.368"/><use xlink:href="#7" y="19.539"/><use xlink:href="#11" y="21.71"/></svg><svg x="3100"><use xlink:href="#a"/><use xlink:href="#b" x="15.996" y="21.685"/><use xlink:href="#1"/><use xlink:href="#2" y="2.171"/><use xlink:href="#3" y="4.342"/><use xlink:href="#4" y="8.684"/><use xlink:href="#5" y="10.855"/><use xlink:href="#6" y="13.026"/><use xlink:href="#8" y="15.197"/><use xlink:href="#9" y="17.368"/><use xlink:href="#7" y="19.539"/><text y="23.38" class="f">$</text><text x="3.006" y="23.38" class="g">tshsh</text><text x="10.02" y="23.38" class="h">echo</text><text x="15.03" y="23.38" class="i">1</text></svg><svg x="3200"><use xlink:href="#a"/><use xlink:href="#b" x="15.996" y="21.685"/><use xlink:href="#1"/><use xlink:href="#2" y="2.171"/><use xlink:href="#3" y="4.342"/><use xlink:href="#4" y="8.684"/><use xlink:href="#5" y="10.855"/><use xlink:href="#6" y="13.026"/><use xlink:href="#8" y="15.197"/><use xlink:href="#9" y="17.368"/><use xlink:href="#7" y="19.539"/><text y="23.38" class="f">$</text><text x="3.006" y="23.38" class="g">tshsh</text><text x="10.02" y="23.38" class="h">echo</text><text x="15.03" y="23.38" class="i">1</text><text x="16.032" y="23.38" class="j">23</text></svg><svg x="3300"><use xlink:href="#a"/><use xlink:href="#b" x="16.996" y="21.685"/><use xlink:href="#1"/><use xlink:href="#2" y="2.171"/><use xlink:href="#3" y="4.342"/><use xlink:href="#4" y="8.684"/><use xlink:href="#5" y="10.855"/><use xlink:href="#6" y="13.026"/><use xlink:href="#8" y="15.197"/><use xlink:href="#9" y="17.368"/><use xlink:href="#7" y="19.539"/><text y="23.38" class="f">$</text><text x="3.006" y="23.38" class="g">tshsh</text><text x="10.02" y="23.38" class="h">echo</text><text x="15.03" y="23.38" class="i">12</text><text x="17.034" y="23.38" class="j">3</text></svg><svg x="3400"><use xlink:href="#a"/><use xlink:href="#b" x="17.996" y="21.685"/><use xlink:href="#1"/><use xlink:href="#2" y="2.171"/><use xlink:href="#3" y="4.342"/><use xlink:href="#4" y="8.684"/><use xlink:href="#5" y="10.855"/><use xlink:href="#6" y="13.026"/><use xlink:href="#8" y="15.197"/><use xlink:href="#9" y="17.368"/><use xlink:href="#7" y="19.539"/><use xlink:href="#12" y="21.71"/></svg><svg x="3500"><use xlink:href="#a"/><use xlink:href="#b" x="17.996" y="21.685"/><use xlink:href="#1"/><use xlink:href="#2" y="2.171"/><use xlink:href="#3" y="4.342"/><use xlink:href="#4" y="8.684"/><use xlink:href="#5" y="10.855"/><use xlink:href="#6" y="13.026"/><use xlink:href="#8" y="15.197"/><use xlink:href="#9" y="17.368"/><use xlink:href="#7" y="19.539"/><use xlink:href="#12" y="21.71"/></svg><svg x="3600"><use xlink:href="#a"/><use xlink:href="#b" x="17.996" y="21.685"/><use xlink:href="#1"/><use xlink:href="#2" y="2.171"/><use xlink:href="#3" y="4.342"/><use xlink:href="#4" y="8.684"/><use xlink:href="#5" y="10.855"/><use xlink:href="#6" y="13.026"/><use xlink:href="#8" y="15.197"/><use xlink:href="#9" y="17.368"/><use xlink:href="#7" y="19.539"/><use xlink:href="#12" y="21.71"/></svg><svg x="3700"><use xlink:href="#a"/><use xlink:href="#b" x="-.004" y="23.856"/><use xlink:href="#1"/><use xlink:href="#2" y="2.171"/><use xlink:href="#3" y="4.342"/><use xlink:href="#4" y="8.684"/><use xlink:href="#5" y="10.855"/><use xlink:href="#6" y="13.026"/><use xlink:href="#8" y="15.197"/><use xlink:href="#9" y="17.368"/><use xlink:href="#7" y="19.539"/><use xlink:href="#12" y="21.71"/></svg><svg x="3800"><use xlink:href="#a"/><use xlink:href="#b" x="-.004" y="23.856"/><use xlink:href="#1"/><use xlink:href="#2" y="2.171"/><use xlink:href="#3" y="4.342"/><use xlink:href="#4" y="8.684"/><use xlink:href="#5" y="10.855"/><use xlink:href="#6" y="13.026"/><use xlink:href="#8" y="15.197"/><use xlink:href="#9" y="17.368"/><use xlink:href="#7" y="19.539"/><use xlink:href="#12" y="21.71"/></svg><svg x="3900"><use xlink:href="#a"/><use xlink:href="#b" x="-.004" y="26.027"/><use xlink:href="#1"/><use xlink:href="#2" y="2.171"/><use xlink:href="#3" y="4.342"/><use xlink:href="#4" y="8.684"/><use xlink:href="#5" y="10.855"/><use xlink:href="#6" y="13.026"/><use xlink:href="#8" y="15.197"/><use xlink:href="#9" y="17.368"/><use xlink:href="#7" y="19.539"/><use xlink:href="#12" y="21.71"/><use xlink:href="#13" y="23.881"/></svg><svg x="4000"><use xlink:href="#a"/><use xlink:href="#b" x="9.996" y="26.027"/><use xlink:href="#1"/><use xlink:href="#2" y="2.171"/><use xlink:href="#3" y="4.342"/><use xlink:href="#4" y="8.684"/><use xlink:href="#5" y="10.855"/><use xlink:href="#6" y="13.026"/><use xlink:href="#8" y="15.197"/><use xlink:href="#9" y="17.368"/><use xlink:href="#7" y="19.539"/><use xlink:href="#12" y="21.71"/><use xlink:href="#13" y="23.881"/><use xlink:href="#10" y="26.052"/></svg><svg x="4100"><use xlink:href="#a"/><use xlink:href="#b" x="9.996" y="26.027"/><use xlink:href="#1"/><use xlink:href="#2" y="2.171"/><use xlink:href="#3" y="4.342"/><use xlink:href="#4" y="8.684"/><use xlink:href="#5" y="10.855"/><use xlink:href="#6" y="13.026"/><use xlink:href="#8" y="15.197"/><use xlink:href="#9" y="17.368"/><use xlink:href="#7" y="19.539"/><use xlink:href="#12" y="21.71"/><use xlink:href="#13" y="23.881"/><use xlink:href="#10" y="26.052"/></svg><svg x="4200"><use xlink:href="#a"/><use xlink:href="#b" x="9.996" y="26.027"/><use xlink:href="#1"/><use xlink:href="#2" y="2.171"/><use xlink:href="#3" y="4.342"/><use xlink:href="#4" y="8.684"/><use xlink:href="#5" y="10.855"/><use xlink:href="#6" y="13.026"/><use xlink:href="#8" y="15.197"/><use xlink:href="#9" y="17.368"/><use xlink:href="#7" y="19.539"/><use xlink:href="#12" y="21.71"/><use xlink:href="#13" y="23.881"/><use xlink:href="#10" y="26.052"/></svg><svg x="4300"><use xlink:href="#a"/><use xlink:href="#b" x="9.996" y="26.027"/><use xlink:href="#1"/><use xlink:href="#2" y="2.171"/><use xlink:href="#3" y="4.342"/><use xlink:href="#4" y="8.684"/><use xlink:href="#5" y="10.855"/><use xlink:href="#6" y="13.026"/><use xlink:href="#8" y="15.197"/><use xlink:href="#9" y="17.368"/><use xlink:href="#7" y="19.539"/><use xlink:href="#12" y="21.71"/><use xlink:href="#13" y="23.881"/><use xlink:href="#10" y="26.052"/></svg><svg x="4400"><use xlink:href="#a"/><use xlink:href="#b" x="3.996" y="30.369"/><use xlink:href="#1"/><use xlink:href="#2" y="2.171"/><use xlink:href="#3" y="4.342"/><use xlink:href="#4" y="8.684"/><use xlink:href="#5" y="10.855"/><use xlink:href="#6" y="13.026"/><use xlink:href="#8" y="15.197"/><use xlink:href="#9" y="17.368"/><use xlink:href="#7" y="19.539"/><use xlink:href="#12" y="21.71"/><use xlink:href="#13" y="23.881"/><use xlink:href="#10" y="26.052"/><use xlink:href="#14" y="28.223"/><use xlink:href="#7" y="30.394"/></svg><svg x="4500"><use xlink:href="#a"/><use xlink:href="#b" x="3.996" y="30.369"/><use xlink:href="#1"/><use xlink:href="#2" y="2.171"/><use xlink:href="#3" y="4.342"/><use xlink:href="#4" y="8.684"/><use xlink:href="#5" y="10.855"/><use xlink:href="#6" y="13.026"/><use xlink:href="#8" y="15.197"/><use xlink:href="#9" y="17.368"/><use xlink:href="#7" y="19.539"/><use xlink:href="#12" y="21.71"/><use xlink:href="#13" y="23.881"/><use xlink:href="#10" y="26.052"/><use xlink:href="#14" y="28.223"/><use xlink:href="#7" y="30.394"/></svg><svg x="4600"><use xlink:href="#a"/><use xlink:href="#b" x="-.004" y="32.54"/><use xlink:href="#1"/><use xlink:href="#2" y="2.171"/><use xlink:href="#3" y="4.342"/><use xlink:href="#4" y="8.684"/><use xlink:href="#5" y="10.855"/><use xlink:href="#6" y="13.026"/><use xlink:href="#8" y="15.197"/><use xlink:href="#9" y="17.368"/><use xlink:href="#7" y="19.539"/><use xlink:href="#12" y="21.71"/><use xlink:href="#13" y="23.881"/><use xlink:href="#10" y="26.052"/><use xlink:href="#14" y="28.223"/><use xlink:href="#7" y="30.394"/></svg><svg x="4700"><use xlink:href="#a"/><use xlink:href="#b" x="-.004" y="32.54"/><use xlink:href="#1"/><use xlink:href="#2" y="2.171"/><use xlink:href="#3" y="4.342"/><use xlink:href="#4" y="8.684"/><use xlink:href="#5" y="10.855"/><use xlink:href="#6" y="13.026"/><use xlink:href="#8" y="15.197"/><use xlink:href="#9" y="17.368"/><use xlink:href="#7" y="19.539"/><use xlink:href="#12" y="21.71"/><use xlink:href="#13" y="23.881"/><use xlink:href="#10" y="26.052"/><use xlink:href="#14" y="28.223"/><use xlink:href="#7" y="30.394"/></svg><svg x="4800"><use xlink:href="#a"/><use xlink:href="#b" x="-.004" y="32.54"/><use xlink:href="#1"/><use xlink:href="#2" y="2.171"/><use xlink:href="#3" y="4.342"/><use xlink:href="#4" y="8.684"/><use xlink:href="#5" y="10.855"/><use xlink:href="#6" y="13.026"/><use xlink:href="#8" y="15.197"/><use xlink:href="#9" y="17.368"/><use xlink:href="#7" y="19.539"/><use xlink:href="#12" y="21.71"/><use xlink:href="#13" y="23.881"/><use xlink:href="#10" y="26.052"/><use xlink:href="#14" y="28.223"/><use xlink:href="#7" y="30.394"/></svg><svg x="4900"><use xlink:href="#a"/><use xlink:href="#b" x="-.004" y="32.54"/><use xlink:href="#1"/><use xlink:href="#2" y="2.171"/><use xlink:href="#3" y="4.342"/><use xlink:href="#4" y="8.684"/><use xlink:href="#5" y="10.855"/><use xlink:href="#6" y="13.026"/><use xlink:href="#8" y="15.197"/><use xlink:href="#9" y="17.368"/><use xlink:href="#7" y="19.539"/><use xlink:href="#12" y="21.71"/><use xlink:href="#13" y="23.881"/><use xlink:href="#10" y="26.052"/><use xlink:href="#14" y="28.223"/><use xlink:href="#7" y="30.394"/></svg><svg x="5000"><use xlink:href="#a"/><use xlink:href="#b" x="9.996" y="32.54"/><use xlink:href="#1"/><use xlink:href="#2" y="2.171"/><use xlink:href="#3" y="4.342"/><use xlink:href="#4" y="8.684"/><use xlink:href="#5" y="10.855"/><use xlink:href="#6" y="13.026"/><use xlink:href="#8" y="15.197"/><use xlink:href="#9" y="17.368"/><use xlink:href="#7" y="19.539"/><use xlink:href="#12" y="21.71"/><use xlink:href="#13" y="23.881"/><use xlink:href="#10" y="26.052"/><use xlink:href="#14" y="28.223"/><use xlink:href="#7" y="30.394"/><use xlink:href="#10" y="32.565"/></svg><svg x="5100"><use xlink:href="#a"/><use xlink:href="#b" x="9.996" y="32.54"/><use xlink:href="#1"/><use xlink:href="#2" y="2.171"/><use xlink:href="#3" y="4.342"/><use xlink:href="#4" y="8.684"/><use xlink:href="#5" y="10.855"/><use xlink:href="#6" y="13.026"/><use xlink:href="#8" y="15.197"/><use xlink:href="#9" y="17.368"/><use xlink:href="#7" y="19.539"/><use xlink:href="#12" y="21.71"/><use xlink:href="#13" y="23.881"/><use xlink:href="#10" y="26.052"/><use xlink:href="#14" y="28.223"/><use xlink:href="#7" y="30.394"/><use xlink:href="#10" y="32.565"/></svg><svg x="5200"><use xlink:href="#a"/><use xlink:href="#b" x="9.996" y="32.54"/><use xlink:href="#1"/><use xlink:href="#2" y="2.171"/><use xlink:href="#3" y="4.342"/><use xlink:href="#4" y="8.684"/><use xlink:href="#5" y="10.855"/><use xlink:href="#6" y="13.026"/><use xlink:href="#8" y="15.197"/><use xlink:href="#9" y="17.368"/><use xlink:href="#7" y="19.539"/><use xlink:href="#12" y="21.71"/><use xlink:href="#13" y="23.881"/><use xlink:href="#10" y="26.052"/><use xlink:href="#14" y="28.223"/><use xlink:href="#7" y="30.394"/><use xlink:href="#10" y="32.565"/></svg></svg></g></g></svg></svg>